<svg xmlns="http://www.w3.org/2000/svg" version="1.1" xmlns:xlink="http://www.w3.org/1999/xlink" xmlns:svgjs="http://svgjs.dev/svgjs" width="512" height="512"><svg xmlns="http://www.w3.org/2000/svg" version="1.1" viewBox="0 0 512 512">
  <!-- Generator: Adobe Illustrator 28.6.0, SVG Export Plug-In . SVG Version: 1.2.0 Build 709)  -->
  <g>
    <g id="SvgjsG1003" data-name="Слой_1">
      <g id="SvgjsG1002" data-name="_Слой_1">
        <path d="M257,461.5c-113.3,0-207-92.7-207-206S143.7,48.5,257,49.5c111.2,0,202.9,92.7,204.9,203.9,1,113.3-91.7,208-204.9,209.1v-1ZM441.4,254.5c0-103-85.5-186.4-188.5-185.4-100.9,0-183.3,83.4-183.3,184.4s82.4,187.4,185.4,187.4,186.4-84.5,186.4-187.4v1Z"></path>
        <path d="M256,157.6h-4.1l17.5,20.6c40.2,5.1,62.8,33,62.8,76.2s-28.8,79.3-77.2,79.3-79.3-30.9-78.3-79.3v-9.3l-15.4-15.4c-2.1,8.2-4.1,17.5-4.1,25.7,0,53.6,44.3,97.8,97.8,97.8s97.8-45.3,96.8-98.9c0-52.5-44.3-95.8-96.8-96.8h1Z"></path>
      </g>
    </g>
  </g>
</svg><style>@media (prefers-color-scheme: light) { :root { filter: none; } }
@media (prefers-color-scheme: dark) { :root { filter: none; } }
</style></svg>